<?xml version="1.0" standalone="no"?><!DOCTYPE svg PUBLIC "-//W3C//DTD SVG 1.1//EN" "http://www.w3.org/Graphics/SVG/1.1/DTD/svg11.dtd"><svg t="1715651724603" class="icon" viewBox="0 0 1024 1024" version="1.1" xmlns="http://www.w3.org/2000/svg" p-id="11764" xmlns:xlink="http://www.w3.org/1999/xlink" width="200" height="200"><path d="M512 770.7c-84.4 0-163.8-32.9-223.4-92.6-59.7-59.7-92.6-139-92.6-223.4s32.9-163.8 92.6-223.4 139-92.6 223.4-92.6 163.8 32.9 223.4 92.6c59.7 59.7 92.6 139 92.6 223.4s-32.9 163.8-92.6 223.4c-59.6 59.7-139 92.6-223.4 92.6z m0-616c-80.1 0-155.5 31.2-212.1 87.9-56.7 56.7-87.9 132-87.9 212.1s31.2 155.5 87.9 212.1c56.7 56.7 132 87.9 212.1 87.9s155.5-31.2 212.1-87.9c56.7-56.7 87.9-132 87.9-212.1s-31.2-155.5-87.9-212.1c-56.6-56.7-131.9-87.9-212.1-87.9zM367.1 940.9h-78c-8.8 0-16-7.2-16-16s7.2-16 16-16h78c8.8 0 16 7.2 16 16s-7.2 16-16 16z m364.3 0h-78c-8.8 0-16-7.2-16-16s7.2-16 16-16h78c8.8 0 16 7.2 16 16s-7.1 16-16 16z" fill="#4780FF" p-id="11765"></path><path d="M512 730.5c-6.6 0-12-5.4-12-12V190.9c0-6.6 5.4-12 12-12s12 5.4 12 12v527.6c0 6.6-5.3 12-12 12z" fill="#4780FF" p-id="11766"></path><path d="M775.9 462.7H248.2c-4.4 0-8-3.6-8-8s3.6-8 8-8h527.6c4.4 0 8 3.6 8 8s-3.5 8-7.9 8z" fill="#4780FF" p-id="11767"></path><path d="M325.5 649.2c-2 0-4.1-0.8-5.7-2.3-3.1-3.1-3.1-8.2 0-11.3l373.1-373.1c3.1-3.1 8.2-3.1 11.3 0 3.1 3.1 3.1 8.2 0 11.3l-373 373.1c-1.6 1.6-3.7 2.3-5.7 2.3z" fill="#4780FF" p-id="11768"></path><path d="M698.6 649.2c-2 0-4.1-0.8-5.7-2.3L319.8 273.8c-3.1-3.1-3.1-8.2 0-11.3 3.1-3.1 8.2-3.1 11.3 0l373.1 373.1c3.1 3.1 3.1 8.2 0 11.3-1.5 1.6-3.6 2.3-5.6 2.3z" fill="#4780FF" p-id="11769"></path><path d="M512.9 452m-88.5 0a88.5 88.5 0 1 0 177 0 88.5 88.5 0 1 0-177 0Z" fill="#D4E3FF" p-id="11770"></path><path d="M512.9 556.6c-57.6 0-104.5-46.9-104.5-104.5s46.9-104.5 104.5-104.5S617.5 394.4 617.5 452s-46.9 104.6-104.6 104.6z m0-177.1c-40 0-72.5 32.5-72.5 72.5s32.5 72.5 72.5 72.5 72.5-32.5 72.5-72.5-32.5-72.5-72.5-72.5z" fill="#4780FF" p-id="11771"></path><path d="M511.2 147.5m-47.8 0a47.8 47.8 0 1 0 95.6 0 47.8 47.8 0 1 0-95.6 0Z" fill="#FFFFFF" p-id="11772"></path><path d="M511.2 203.3c-30.8 0-55.8-25-55.8-55.8s25-55.8 55.8-55.8c30.8 0 55.8 25 55.8 55.8s-25.1 55.8-55.8 55.8z m0-95.6c-21.9 0-39.8 17.9-39.8 39.8s17.9 39.8 39.8 39.8 39.8-17.9 39.8-39.8-17.9-39.8-39.8-39.8z" fill="#F0623E" p-id="11773"></path><path d="M204 456.5m-47.8 0a47.8 47.8 0 1 0 95.6 0 47.8 47.8 0 1 0-95.6 0Z" fill="#FFFFFF" p-id="11774"></path><path d="M204 512.3c-30.8 0-55.8-25-55.8-55.8s25-55.8 55.8-55.8 55.8 25 55.8 55.8-25.1 55.8-55.8 55.8z m0-95.6c-21.9 0-39.8 17.9-39.8 39.8s17.9 39.8 39.8 39.8 39.8-17.9 39.8-39.8-17.9-39.8-39.8-39.8z" fill="#F0623E" p-id="11775"></path><path d="M820.1 454.7m-47.8 0a47.8 47.8 0 1 0 95.6 0 47.8 47.8 0 1 0-95.6 0Z" fill="#FFFFFF" p-id="11776"></path><path d="M820.1 510.5c-30.8 0-55.8-25-55.8-55.8s25-55.8 55.8-55.8c30.8 0 55.8 25 55.8 55.8s-25 55.8-55.8 55.8z m0-95.6c-21.9 0-39.8 17.9-39.8 39.8s17.9 39.8 39.8 39.8 39.8-17.9 39.8-39.8-17.8-39.8-39.8-39.8z" fill="#F0623E" p-id="11777"></path><path d="M512.9 767.2m-47.8 0a47.8 47.8 0 1 0 95.6 0 47.8 47.8 0 1 0-95.6 0Z" fill="#FFFFFF" p-id="11778"></path><path d="M512.9 823c-30.8 0-55.8-25-55.8-55.8 0-30.8 25-55.8 55.8-55.8 30.8 0 55.8 25 55.8 55.8 0 30.8-25 55.8-55.8 55.8z m0-95.6c-21.9 0-39.8 17.9-39.8 39.8S491 807 512.9 807s39.8-17.9 39.8-39.8c0-22-17.8-39.8-39.8-39.8z" fill="#F0623E" p-id="11779"></path><path d="M696.68089 271.416855a47.8 47.8 0 1 0 67.599409-67.599408 47.8 47.8 0 1 0-67.599409 67.599408Z" fill="#FFFFFF" p-id="11780"></path><path d="M730.5 293.4c-14.3 0-28.6-5.4-39.5-16.3-21.8-21.8-21.8-57.2 0-78.9 10.5-10.5 24.6-16.3 39.5-16.3 14.9 0 28.9 5.8 39.5 16.3 21.8 21.8 21.8 57.2 0 78.9-10.9 10.9-25.2 16.3-39.5 16.3z m0-95.6c-10.6 0-20.6 4.1-28.1 11.7-7.5 7.5-11.7 17.5-11.7 28.1s4.1 20.6 11.7 28.1c7.5 7.5 17.5 11.7 28.1 11.7 10.6 0 20.6-4.1 28.1-11.7 7.5-7.5 11.7-17.5 11.7-28.1s-4.1-20.6-11.7-28.1c-7.5-7.5-17.5-11.7-28.1-11.7z" fill="#F0623E" p-id="11781"></path><path d="M261.020589 272.708696a47.8 47.8 0 1 0 67.599408-67.599409 47.8 47.8 0 1 0-67.599408 67.599409Z" fill="#FFFFFF" p-id="11782"></path><path d="M294.8 294.7c-14.3 0-28.6-5.4-39.5-16.3-10.5-10.5-16.3-24.6-16.3-39.5s5.8-28.9 16.3-39.5c10.5-10.5 24.6-16.3 39.5-16.3s28.9 5.8 39.5 16.3c10.5 10.5 16.3 24.6 16.3 39.5s-5.8 28.9-16.3 39.5c-10.9 10.8-25.2 16.3-39.5 16.3z m0-95.6c-10.6 0-20.6 4.1-28.1 11.7-7.5 7.5-11.7 17.5-11.7 28.1s4.1 20.6 11.7 28.1c15.5 15.5 40.8 15.5 56.3 0 7.5-7.5 11.7-17.5 11.7-28.1s-4.1-20.6-11.7-28.1c-7.5-7.6-17.5-11.7-28.2-11.7z" fill="#F0623E" p-id="11783"></path><path d="M697.972438 707.076449a47.8 47.8 0 1 0 67.599408-67.599408 47.8 47.8 0 1 0-67.599408 67.599408Z" fill="#FFFFFF" p-id="11784"></path><path d="M731.8 729.1c-14.3 0-28.6-5.4-39.5-16.3-21.8-21.8-21.8-57.2 0-78.9 21.8-21.8 57.2-21.8 78.9 0 10.5 10.5 16.3 24.6 16.3 39.5s-5.8 28.9-16.3 39.5c-10.9 10.8-25.1 16.2-39.4 16.2z m0-95.6c-10.2 0-20.4 3.9-28.1 11.6-15.5 15.5-15.5 40.8 0 56.3s40.8 15.5 56.3 0c7.5-7.5 11.7-17.5 11.7-28.1 0-10.6-4.1-20.6-11.7-28.1-7.9-7.8-18-11.7-28.2-11.7z" fill="#F0623E" p-id="11785"></path><path d="M259.808844 710.86634a47.8 47.8 0 1 0 67.599408-67.599408 47.8 47.8 0 1 0-67.599408 67.599408Z" fill="#FFFFFF" p-id="11786"></path><path d="M293.6 732.8c-14.3 0-28.6-5.4-39.5-16.3-10.5-10.5-16.3-24.6-16.3-39.5 0-14.9 5.8-28.9 16.3-39.5 10.5-10.5 24.6-16.3 39.5-16.3s28.9 5.8 39.5 16.3c21.8 21.8 21.8 57.2 0 78.9-10.9 11-25.2 16.4-39.5 16.4z m0-95.5c-10.6 0-20.6 4.1-28.1 11.7-7.5 7.5-11.7 17.5-11.7 28.1 0 10.6 4.1 20.6 11.7 28.1 15.5 15.5 40.8 15.5 56.3 0s15.5-40.8 0-56.3c-7.6-7.5-17.6-11.6-28.2-11.6z" fill="#F0623E" p-id="11787"></path><path d="M512 778.7c-86.5 0-167.9-33.7-229.1-94.9-61.2-61.2-94.9-142.6-94.9-229.1s33.7-167.9 94.9-229.1 142.6-94.9 229.1-94.9 167.9 33.7 229.1 94.9c61.2 61.2 94.9 142.6 94.9 229.1s-33.7 167.9-94.9 229.1C679.9 745 598.6 778.7 512 778.7z m0-616c-78 0-151.3 30.4-206.5 85.5S220 376.7 220 454.7s30.4 151.3 85.5 206.5c55.2 55.2 128.5 85.5 206.5 85.5s151.3-30.4 206.5-85.5C773.7 606 804 532.7 804 454.7s-30.4-151.3-85.5-206.5C663.4 193.1 590 162.7 512 162.7z" fill="#4780FF" p-id="11788"></path><path d="M512 730.7c-6.6 0-12-5.4-12-12v-528c0-6.6 5.4-12 12-12s12 5.4 12 12v528c0 6.6-5.3 12-12 12z" fill="#4780FF" p-id="11789"></path><path d="M776 466.7H248c-6.6 0-12-5.4-12-12s5.4-12 12-12h528c6.6 0 12 5.4 12 12s-5.3 12-12 12z" fill="#4780FF" p-id="11790"></path><path d="M325.1 653.7c-3.1 0-6.2-1.2-8.5-3.5-4.7-4.7-4.7-12.3 0-17l373.9-373.9c4.7-4.7 12.3-4.7 17 0 4.7 4.7 4.7 12.3 0 17L333.6 650.2c-2.4 2.3-5.5 3.5-8.5 3.5z" fill="#4780FF" p-id="11791"></path><path d="M699 653.7c-3.1 0-6.2-1.2-8.5-3.5l-373.9-374c-4.7-4.7-4.7-12.3 0-17 4.7-4.7 12.3-4.7 17 0l373.9 373.9c4.7 4.7 4.7 12.3 0 17-2.3 2.4-5.4 3.6-8.5 3.6z" fill="#4780FF" p-id="11792"></path><path d="M698.2 940.5c-6.4 0-12.4-3.8-14.9-10.1L511.6 495.9 337.2 930.5c-3.3 8.2-12.6 12.2-20.8 8.9-8.2-3.3-12.2-12.6-8.9-20.8l189.4-471.9c2.4-6.1 8.3-10.1 14.9-10.1s12.4 4 14.9 10.1l186.5 471.9c3.3 8.2-0.8 17.5-9 20.8-2 0.8-4 1.1-6 1.1z" fill="#4780FF" p-id="11793"></path><path d="M512.9 452m-88 0a88 88 0 1 0 176 0 88 88 0 1 0-176 0Z" fill="#D4E3FF" p-id="11794"></path><path d="M512.9 556c-57.3 0-104-46.7-104-104s46.7-104 104-104 104 46.7 104 104c0 57.4-46.6 104-104 104z m0-176c-39.7 0-72 32.3-72 72s32.3 72 72 72 72-32.3 72-72-32.2-72-72-72z" fill="#4780FF" p-id="11795"></path><path d="M511.2 147.5m-48 0a48 48 0 1 0 96 0 48 48 0 1 0-96 0Z" fill="#FFFFFF" p-id="11796"></path><path d="M511.2 207.5c-33.1 0-60-26.9-60-60s26.9-60 60-60 60 26.9 60 60-27 60-60 60z m0-96c-19.8 0-36 16.1-36 36 0 19.8 16.1 36 36 36 19.8 0 36-16.1 36-36-0.1-19.8-16.2-36-36-36z" fill="#FF6D47" p-id="11797"></path><path d="M204 456.5m-48 0a48 48 0 1 0 96 0 48 48 0 1 0-96 0Z" fill="#FFFFFF" p-id="11798"></path><path d="M204 516.5c-33.1 0-60-26.9-60-60s26.9-60 60-60 60 26.9 60 60-27 60-60 60z m0-96c-19.8 0-36 16.1-36 36s16.1 36 36 36 36-16.1 36-36-16.2-36-36-36z" fill="#FF6D47" p-id="11799"></path><path d="M820.1 454.7m-48 0a48 48 0 1 0 96 0 48 48 0 1 0-96 0Z" fill="#FFFFFF" p-id="11800"></path><path d="M820.1 514.7c-33.1 0-60-26.9-60-60s26.9-60 60-60 60 26.9 60 60-26.9 60-60 60z m0-95.9c-19.8 0-35.9 16.1-35.9 35.9s16.1 35.9 35.9 35.9 35.9-16.1 35.9-35.9-16.1-35.9-35.9-35.9z" fill="#FF6D47" p-id="11801"></path><path d="M512.9 767.2m-48 0a48 48 0 1 0 96 0 48 48 0 1 0-96 0Z" fill="#FFFFFF" p-id="11802"></path><path d="M512.9 827.2c-33.1 0-60-26.9-60-60s26.9-60 60-60 60 26.9 60 60-26.9 60-60 60z m0-96c-19.8 0-36 16.1-36 36 0 19.8 16.1 36 36 36 19.8 0 36-16.1 36-36 0-19.8-16.1-36-36-36z" fill="#FF6D47" p-id="11803"></path><path d="M764.4 271.5c-18.7 18.7-49.1 18.7-67.9 0-18.7-18.7-18.7-49.1 0-67.9 18.7-18.7 49.1-18.7 67.9 0s18.8 49.2 0 67.9z" fill="#FFFFFF" p-id="11804"></path><path d="M730.5 297.6c-16 0-31.1-6.2-42.4-17.6-23.4-23.4-23.4-61.5 0-84.9 11.3-11.3 26.4-17.6 42.4-17.6s31.1 6.2 42.4 17.6c11.3 11.3 17.6 26.4 17.6 42.4s-6.2 31.1-17.6 42.4c-11.3 11.5-26.4 17.7-42.4 17.7z m0-95.9c-9.6 0-18.6 3.7-25.4 10.5-14 14-14 36.8 0 50.8 6.8 6.8 15.8 10.5 25.4 10.5 9.6 0 18.6-3.7 25.4-10.5 6.8-6.8 10.5-15.8 10.5-25.4 0-9.6-3.7-18.6-10.5-25.4-6.8-6.8-15.8-10.5-25.4-10.5z" fill="#FF6D47" p-id="11805"></path><path d="M328.8 272.8c-18.7 18.7-49.1 18.7-67.9 0s-18.7-49.1 0-67.9 49.1-18.7 67.9 0 18.7 49.2 0 67.9z" fill="#FFFFFF" p-id="11806"></path><path d="M294.8 298.9c-16 0-31.1-6.2-42.4-17.6-23.4-23.4-23.4-61.5 0-84.9 11.3-11.3 26.4-17.6 42.4-17.6s31.1 6.2 42.4 17.6c23.4 23.4 23.4 61.5 0 84.9-11.3 11.3-26.3 17.6-42.4 17.6z m0-96c-9.6 0-18.6 3.7-25.4 10.5-14 14-14 36.8 0 50.8 6.8 6.8 15.8 10.5 25.4 10.5s18.6-3.7 25.4-10.5c14-14 14-36.8 0-50.8-6.7-6.7-15.8-10.5-25.4-10.5z m34 69.9z" fill="#FF6D47" p-id="11807"></path><path d="M697.831017 707.217871a48 48 0 1 0 67.882251-67.882251 48 48 0 1 0-67.882251 67.882251Z" fill="#FFFFFF" p-id="11808"></path><path d="M731.8 733.3c-16 0-31.1-6.2-42.4-17.6-11.3-11.3-17.6-26.4-17.6-42.4s6.2-31.1 17.6-42.4c11.3-11.3 26.4-17.6 42.4-17.6s31.1 6.2 42.4 17.6c11.3 11.3 17.6 26.4 17.6 42.4s-6.2 31.1-17.6 42.4c-11.3 11.4-26.4 17.6-42.4 17.6z m0-96c-9.6 0-18.7 3.7-25.5 10.5s-10.5 15.8-10.5 25.5 3.7 18.7 10.5 25.5 15.8 10.5 25.5 10.5c9.6 0 18.7-3.7 25.5-10.5s10.5-15.8 10.5-25.5-3.7-18.7-10.5-25.5-15.9-10.5-25.5-10.5z" fill="#FF6D47" p-id="11809"></path><path d="M327.5 711c-18.7 18.7-49.1 18.7-67.9 0-18.7-18.7-18.7-49.1 0-67.9 18.7-18.7 49.1-18.7 67.9 0s18.7 49.2 0 67.9z" fill="#FFFFFF" p-id="11810"></path><path d="M293.6 737.1c-15.4 0-30.7-5.8-42.4-17.5-11.3-11.3-17.6-26.4-17.6-42.4s6.2-31.1 17.6-42.4c11.3-11.3 26.4-17.6 42.4-17.6s31.1 6.2 42.4 17.6c11.3 11.3 17.6 26.4 17.6 42.4s-6.2 31.1-17.6 42.4a60.231 60.231 0 0 1-42.4 17.5z m0-96c-9.6 0-18.6 3.7-25.4 10.5-6.8 6.8-10.5 15.8-10.5 25.4 0 9.6 3.7 18.6 10.5 25.4 14 14 36.8 14 50.8 0 6.8-6.8 10.5-15.8 10.5-25.4 0-9.6-3.7-18.6-10.5-25.4-6.8-6.8-15.8-10.5-25.4-10.5z m33.9 69.9z" fill="#FF6D47" p-id="11811"></path></svg>