<?xml version="1.0" standalone="no"?><!DOCTYPE svg PUBLIC "-//W3C//DTD SVG 1.1//EN" "http://www.w3.org/Graphics/SVG/1.1/DTD/svg11.dtd"><svg t="1715853128751" class="icon" viewBox="0 0 1024 1024" version="1.1" xmlns="http://www.w3.org/2000/svg" p-id="7750" xmlns:xlink="http://www.w3.org/1999/xlink" width="200" height="200"><path d="M230.4 127.7h64v0.3h-64zM452.3 127.7h64v0.3h-64z" fill="#727272" p-id="7751"></path><path d="M516.3 127.7v341.4l-143-107.2-142.9 107.2V127.7h64v0.3h157.9v-0.3z" fill="#E6C27C" p-id="7752"></path><path d="M897.1 768L849 686.5l-11.4-19.2c-7.7 7.5-16.3 14-25.6 19.6-0.8 0.5-1.6 0.9-2.4 1.4-0.5 0.3-1.1 0.6-1.6 0.9-1.4 0.8-2.7 1.5-4.1 2.2-0.7 0.3-1.3 0.7-2 1-0.7 0.3-1.4 0.7-2.1 1-5.6 2.6-11.3 4.9-17.3 6.7l40.1 68h-159l38.1-66.9c-1.9-0.6-3.8-1.1-5.7-1.8-1.3-0.4-2.6-0.9-3.9-1.4-0.1 0-0.1-0.1-0.2-0.1-0.7-0.3-1.4-0.5-2.1-0.8-0.7-0.3-1.3-0.5-2-0.8h-0.1c-1.3-0.5-2.6-1.1-4-1.7-0.6-0.3-1.1-0.5-1.7-0.8-1.4-0.7-2.9-1.3-4.3-2.1-0.6-0.3-1.3-0.6-2-1-0.6-0.3-1.3-0.7-1.9-1-0.6-0.3-1.3-0.7-1.9-1-9.4-5.3-18.2-11.6-26.1-18.9l-56 98.3H521v128H151.5c-12.9 0-23.5-10.5-23.5-23.5v-98.9c20.5 12.7 44.7 20 70.6 20h282.7c0.9 0 1.7-0.8 1.7-1.7v-60.6c0-0.9-0.8-1.7-1.7-1.7H201.1c-40.4 0-73.1-32.8-73.1-73.1V152.5c0-13.6 11-24.5 24.5-24.5h77.9v-0.3h64v0.3h157.9v-0.3h64v0.3h244.3c13.6 0 24.5 11 24.5 24.5v281.2c25.4 8.5 47.5 24.1 64 44.3V152.5c0-48.9-39.6-88.5-88.5-88.5h-608c-49 0-88.6 39.6-88.6 88.5v720c0 48.2 39.2 87.5 87.5 87.5H960V768h-62.9zM896 896H585v-64h311v64z" fill="#727272" p-id="7753"></path><path d="M880.5 566.5c0 33.6-11.8 64.4-31.5 88.5-3.5 4.3-7.3 8.5-11.4 12.3-7.7 7.5-16.3 14-25.6 19.6-0.8 0.5-1.6 0.9-2.4 1.4-0.5 0.3-1.1 0.6-1.6 0.9-1.4 0.8-2.7 1.5-4.1 2.2-0.7 0.3-1.3 0.7-2 1-0.7 0.3-1.4 0.7-2.1 1-5.6 2.6-11.3 4.9-17.3 6.7-0.8 0.3-1.7 0.5-2.5 0.8-0.8 0.3-1.7 0.5-2.5 0.7-0.7 0.2-1.3 0.4-2 0.5-0.5 0.1-1 0.3-1.6 0.4-0.6 0.2-1.3 0.3-1.9 0.4-0.6 0.1-1.2 0.3-1.9 0.4-0.2 0-0.4 0.1-0.5 0.1-0.7 0.1-1.4 0.3-2.1 0.4-0.1 0-0.3 0-0.4 0.1-0.8 0.2-1.7 0.3-2.5 0.5-0.9 0.1-1.7 0.3-2.6 0.4-1.9 0.3-3.8 0.6-5.7 0.8-0.6 0.1-1.3 0.1-1.9 0.2-0.5 0.1-1 0.1-1.5 0.1-0.7 0.1-1.3 0.1-2 0.2s-1.5 0.1-2.2 0.1c-0.6 0-1.2 0.1-1.8 0.1-0.5 0-1 0.1-1.5 0.1-0.8 0-1.6 0-2.4 0.1h-2.8c-2 0-3.9 0-5.9-0.1-0.5 0-1 0-1.5-0.1-1.1-0.1-2.2-0.1-3.3-0.2-0.6 0-1.1-0.1-1.6-0.1h-0.2c-0.8-0.1-1.6-0.1-2.4-0.2l-2.4-0.3c-0.8-0.1-1.6-0.2-2.3-0.3h-0.1c-0.8-0.1-1.6-0.2-2.4-0.4l-1.8-0.3c-0.4-0.1-0.7-0.1-1.1-0.2-0.7-0.1-1.3-0.2-2-0.4-0.8-0.1-1.6-0.3-2.4-0.5-0.8-0.2-1.6-0.3-2.4-0.5-0.8-0.2-1.6-0.4-2.3-0.6-0.8-0.2-1.6-0.4-2.3-0.6-0.8-0.2-1.5-0.4-2.3-0.6-1.9-0.6-3.8-1.1-5.7-1.8-1.3-0.4-2.6-0.9-3.9-1.4-0.1 0-0.1-0.1-0.2-0.1-0.7-0.3-1.4-0.5-2.1-0.8-0.7-0.3-1.3-0.5-2-0.8h-0.1c-1.3-0.5-2.6-1.1-4-1.7-0.6-0.3-1.1-0.5-1.7-0.8-1.4-0.7-2.9-1.3-4.3-2.1-0.6-0.3-1.3-0.6-2-1-0.6-0.3-1.3-0.7-1.9-1-0.6-0.3-1.3-0.7-1.9-1-9.4-5.3-18.2-11.6-26.1-18.9-27.9-25.6-45.4-62.4-45.4-103.2 0-77.4 62.7-140 140-140 15.6 0 30.6 2.5 44.6 7.2 25.4 8.5 47.5 24.1 64 44.3 19.9 24.2 31.7 55 31.7 88.5z" fill="#5280C1" p-id="7754"></path></svg>