<?xml version="1.0" standalone="no"?><!DOCTYPE svg PUBLIC "-//W3C//DTD SVG 1.1//EN" "http://www.w3.org/Graphics/SVG/1.1/DTD/svg11.dtd"><svg t="1715653466904" class="icon" viewBox="0 0 1024 1024" version="1.1" xmlns="http://www.w3.org/2000/svg" p-id="23745" xmlns:xlink="http://www.w3.org/1999/xlink" width="200" height="200"><path d="M752.81803812 164.24060094l-76.033035-0.46760813 0.46760813-76.96825031c0.18704344-28.99168594-23.47391344-52.9332075-52.46560031-53.12025094-28.99168594-0.18704344-52.9332075 23.47391344-53.12025094 52.46560032l-0.46760719 76.96825031-182.55410156-1.0287375 0.46760812-76.96825031c0.18704344-28.99168594-23.47391344-52.9332075-52.46559937-53.12025094s-52.9332075 23.47391344-53.12025094 52.46559937l-0.46760812 76.96825125-87.06857907-0.46760812c-51.34334063-0.28056469-93.52156781 41.43005438-93.80213343 92.77339594L98.5411475 896.51447938c-0.28056469 51.34334063 41.43005438 93.52156781 92.77339594 93.80213249l310.0239975 1.68338813c-73.41443062-53.40081562-121.01690906-140.28235219-120.45577969-238.1059125 0.93521531-161.60526938 132.61358344-291.78729281 294.12533156-290.94559781 63.12705844 0.37408594 121.48451719 20.66826656 169.08699563 54.89716031l1.40282343-259.80291656c0.37408594-51.24981938-41.43005438-93.52156781-92.67987375-93.8021325zM354.13559281 819.73327156c-0.09352125 14.49584344-12.0642825 26.3730825-26.560125 26.27956032l-83.60828156-0.46760719c-14.49584344-0.09352125-26.3730825-12.0642825-26.27956125-26.56012594l0.09352219-8.7910275c0.09352125-14.49584344 12.0642825-26.3730825 26.560125-26.27956031l83.60828156 0.46760812c14.49584344 0.09352125 26.3730825 12.0642825 26.27956125 26.560125l-0.09352219 8.7910275z m1.21578094-222.20724562c-0.09352125 14.49584344-12.0642825 26.3730825-26.56012594 26.27956031l-83.60828156-0.46760812c-14.49584344-0.09352125-26.3730825-12.0642825-26.27956031-26.560125l0.09352125-8.7910275c0.09352125-14.49584344 12.0642825-26.3730825 26.560125-26.27956032l83.6082825 0.46760813c14.49584344 0.09352125 26.3730825 12.0642825 26.27956031 26.560125l-0.09352125 8.7910275z m287.20473563-216.12834375c-0.09352125 14.49584344-12.0642825 26.3730825-26.56012594 26.27956031l-369.503715-2.05747406c-14.49584344-0.09352125-26.3730825-12.0642825-26.27956125-26.56012594l0.09352218-8.7910275c0.09352125-14.49584344 12.0642825-26.3730825 26.560125-26.27956031l369.50371594 2.05747406c14.49584344 0.09352125 26.3730825 12.0642825 26.27956031 26.56012594l-0.09352125 8.7910275z" fill="#0177FF" p-id="23746"></path><path d="M678.28134781 512.70196344c-131.21076 0-237.54478313 106.33402312-237.54478312 237.54478312s106.33402312 237.54478313 237.54478312 237.54478313 237.54478313-106.33402312 237.54478313-237.54478313c0-131.11723875-106.42754437-237.54478313-237.54478313-237.54478312z m97.26243094 238.38647718v31.70381157h-77.34233625V826.37330281h77.34233625v32.0778975h-77.34233625v63.59466657h-39.84018844v-63.59466657h-80.24150531V826.37330281h80.24150531v-43.67457187h-80.24150531v-31.70381156h68.4577875l-83.51476031-143.36856469h44.89035281c38.99849344 71.26343531 62.65945031 116.34083062 71.07639188 135.5127525h0.84169406c2.80564687-7.85581219 10.66145906-23.66095688 23.38039219-47.50895625l47.69599968-87.91027407h42.45879188l-84.26293313 143.36856375h66.40031344z" fill="#004DAA" p-id="23747"></path></svg>