<?xml version="1.0" standalone="no"?><!DOCTYPE svg PUBLIC "-//W3C//DTD SVG 1.1//EN" "http://www.w3.org/Graphics/SVG/1.1/DTD/svg11.dtd"><svg t="1715853073750" class="icon" viewBox="0 0 1024 1024" version="1.1" xmlns="http://www.w3.org/2000/svg" p-id="5394" xmlns:xlink="http://www.w3.org/1999/xlink" width="200" height="200"><path d="M705.28 349.65504a32.98304 32.98304 0 0 0-46.34112 5.37088l-135.10144 170.51136-142.0288-179.25632a32.99328 32.99328 0 0 0-51.70688 40.97024l151.02464 190.60736H366.4896c-16.9984 0-30.77632 13.16864-30.77632 29.40928s13.77792 29.39904 30.77632 29.39904h120.9088v65.5104H366.4896c-16.9984 0-30.77632 13.1584-30.77632 29.39904 0 16.25088 13.77792 29.40928 30.77632 29.40928h120.9088v102.53824c0 18.21184 14.76608 32.96768 32.98304 32.96768s32.98816-14.76096 32.98816-32.96768V760.9856h120.89856c16.9984 0 30.78144-13.1584 30.78144-29.40928 0-16.24064-13.76768-29.39904-30.78144-29.39904H553.3696V636.672h120.89856c16.9984 0 30.78144-13.1584 30.78144-29.39904s-13.76768-29.40928-30.78144-29.40928h-107.70944l144.09216-181.8624a32.9984 32.9984 0 0 0-5.37088-46.34624zM381.92128 215.85408l449.59232-131.6864s65.87904-2.816 76.27776 15.48288c10.39872 18.29376 31.21152 137.94304 31.21152 137.94304H322.97472l49.69984-40.82176 9.24672 19.08224z" fill="#FDA007" p-id="5395"></path><path d="M970.74176 224.68608H53.26336c-28.0064 0-50.70848 26.03008-50.70848 58.1376V947.456c0 32.1024 22.70208 58.13248 50.70848 58.13248h917.47328c28.00128 0 50.69824-26.04032 50.69824-58.13248V282.8288c0.00512-32.11264-22.7072-58.14272-50.69312-58.14272z m-19.38944 663.77216c0 26.0352-19.53792 47.16032-43.65312 47.16032H117.7856c-24.1152 0-43.65312-21.12512-43.65312-47.16032V349.30176c0-26.04032 19.54304-47.16544 43.65312-47.16544h789.90848c24.1152 0 43.65312 21.12512 43.65312 47.16544v539.15648h0.00512zM372.06528 224.68608l461.51168-129.1264c23.71072-6.63552 48.74752 8.7552 55.92064 34.36544l26.5216 94.76096h59.37152l-45.40928-162.29376c-8.64768-30.9248-37.5296-49.87392-64.50176-42.33216L134.13376 224.68608h237.93152z" fill="#656565" p-id="5396"></path></svg>