<?xml version="1.0" standalone="no"?><!DOCTYPE svg PUBLIC "-//W3C//DTD SVG 1.1//EN" "http://www.w3.org/Graphics/SVG/1.1/DTD/svg11.dtd"><svg t="1715853097336" class="icon" viewBox="0 0 1024 1024" version="1.1" xmlns="http://www.w3.org/2000/svg" p-id="7571" xmlns:xlink="http://www.w3.org/1999/xlink" width="200" height="200"><path d="M878 127.3V256H64V127.3C64 92.4 92.7 64 127.9 64H814c35.3 0 64 28.4 64 63.3z" fill="#5280C1" p-id="7572"></path><path d="M878 256v284.5c-7.5-39.1-31.3-72.5-64-92.7V256h64z" fill="#727272" p-id="7573"></path><path d="M256 351.1h64v64h-64z" fill="#E6C37C" p-id="7574"></path><path d="M384 351.9h320v64H384z" fill="#B2B2B2" p-id="7575"></path><path d="M256 479.6h64v64h-64z" fill="#E6C37C" p-id="7576"></path><path d="M384 480.4h191v64H384z" fill="#B2B2B2" p-id="7577"></path><path d="M256 607.6h64v64h-64z" fill="#E6C37C" p-id="7578"></path><path d="M384 608.4h128v64H384z" fill="#B2B2B2" p-id="7579"></path><path d="M896.8 768l-59.1-100.2c-15.4 14.8-34.1 26.1-55 32.7l39.8 67.5H663.9l37.9-66.4c-21.1-6.1-40.1-16.9-55.8-31.3L590.2 768H521v32H128V256H64v544.7c0 34.9 28.7 63.3 63.9 63.3H521v96h439V768h-63.2z m-0.8 128H585v-64h311v64z" fill="#727272" p-id="7580"></path><path d="M880.5 567c0 39.6-16.4 75.4-42.8 100.8-15.4 14.8-34.1 26.1-55 32.7-13.3 4.2-27.5 6.5-42.2 6.5-13.5 0-26.5-1.9-38.8-5.4-21.1-6.1-40.1-16.9-55.8-31.3-27.9-25.6-45.4-62.3-45.4-103.2 0-77.4 62.7-140 140-140 27 0 52.1 7.6 73.5 20.8 32.7 20.2 56.5 53.5 64 92.7 1.6 8.5 2.5 17.3 2.5 26.4z" fill="#5280C1" p-id="7581"></path></svg>